<?xml version="1.0" encoding="UTF-8"?> <svg xmlns="http://www.w3.org/2000/svg" width="195" height="132" viewBox="0 0 195 132" fill="none"><path d="M72.7545 55.6501C72.8017 55.6152 72.8399 55.5708 72.8661 55.5202C72.8924 55.4697 72.906 55.4142 72.906 55.3581L72.484 48.3105L76.1303 46.2365C76.4041 46.0826 76.6423 45.8798 76.8315 45.6398C77.0206 45.3998 77.1568 45.1274 77.2322 44.8382C77.3077 44.549 77.3208 44.2488 77.271 43.9548C77.2212 43.6609 77.1093 43.379 76.9418 43.1255L75.5677 41.0213C75.2296 40.5082 74.6868 40.1407 74.0581 39.9992C73.4295 39.8577 72.7662 39.9537 72.2135 40.2662L72.0187 40.3769L71.1639 25.8991L88.4761 17.593C89.3823 17.0797 90.1702 16.4043 90.7942 15.6059C91.4183 14.8075 91.866 13.902 92.1117 12.9416L92.1766 12.6698L94.5137 9.21644C94.901 8.63607 95.1062 7.96651 95.1062 7.28337C95.1062 6.60023 94.901 5.93068 94.5137 5.3503C94.1308 4.76417 93.5793 4.28946 92.9215 3.97987C92.2637 3.67027 91.5259 3.53816 90.7916 3.59848L86.4636 3.95087C85.3911 3.66626 84.2667 3.59269 83.1619 3.73484C82.0572 3.87698 80.9964 4.23172 80.0472 4.77645L64.0984 15.2572L50.6598 7.92771L50.8545 7.81697C51.4059 7.50235 51.8008 6.99729 51.9529 6.41234C52.105 5.8274 52.0019 5.21023 51.6661 4.69589L50.2919 2.59168C49.9518 2.08071 49.4091 1.71496 48.7813 1.57363C48.1535 1.4323 47.4912 1.52677 46.9377 1.83658L43.2913 3.91058L36.7992 0.346531C36.7443 0.31921 36.683 0.304929 36.6207 0.304929C36.5584 0.304929 36.4971 0.31921 36.4421 0.346531L30.253 3.31657C30.1943 3.34684 30.1447 3.39038 30.1088 3.44316C30.0728 3.49594 30.0517 3.55625 30.0474 3.6186C30.0314 3.67809 30.0314 3.74036 30.0474 3.79985C30.0831 3.85011 30.1314 3.89156 30.1881 3.92066L33.3692 5.5718L35.6523 8.23984L34.0076 9.17616C33.9663 9.19984 33.9303 9.23089 33.9019 9.26754C33.8735 9.30419 33.8532 9.34571 33.8422 9.3897C33.8311 9.43369 33.8295 9.47928 33.8375 9.52385C33.8454 9.56841 33.8628 9.61107 33.8886 9.64936L34.0725 9.93126L32.6443 10.7468C32.4041 10.8862 32.2322 11.1076 32.1654 11.3636C32.0987 11.6195 32.1424 11.8897 32.2872 12.116L34.3322 15.2371C34.482 15.4606 34.72 15.6205 34.9951 15.6826C35.2702 15.7447 35.5605 15.7041 35.8038 15.5693L37.232 14.7538L37.4159 15.0357C37.4675 15.1131 37.5493 15.1689 37.6441 15.1914C37.7389 15.2139 37.8394 15.2014 37.9245 15.1566L40.359 13.7672L49.7401 24.7514L35.7821 33.9938L26.6391 30.4499L22.7222 32.3225L28.8572 38.6754L26.3469 41.3837L28.9113 45.3002L32.5793 44.3638L35.8254 52.3276L39.4068 49.9516L40.2075 40.7595L55.7344 33.289L61.6314 46.2264L59.186 47.6158C59.1036 47.6619 59.0439 47.7362 59.0197 47.8227C58.9954 47.9093 59.0085 48.0012 59.0562 48.0789L59.2509 48.3709L57.8119 49.1864C57.5764 49.3273 57.4088 49.5476 57.3442 49.801C57.2797 50.0545 57.3232 50.3214 57.4656 50.5456L59.5106 53.6667C59.6603 53.8874 59.8963 54.0455 60.1688 54.1075C60.4414 54.1695 60.7291 54.1305 60.9713 53.9989L62.4104 53.1935L62.5944 53.4754C62.6198 53.5139 62.6532 53.5473 62.6926 53.5737C62.732 53.6001 62.7766 53.619 62.8238 53.6293C62.8711 53.6396 62.9201 53.6411 62.968 53.6337C63.0159 53.6263 63.0617 53.6101 63.1029 53.5861L64.7476 52.6599L66.2516 55.7608L66.3706 59.1537C66.3771 59.2134 66.3954 59.2715 66.4247 59.3249C66.4643 59.3783 66.516 59.423 66.5762 59.4558C66.6341 59.4858 66.6993 59.5015 66.7655 59.5015C66.8318 59.5015 66.897 59.4858 66.9549 59.4558L72.7545 55.6501ZM44.092 4.30325L47.338 2.43059C47.7241 2.21087 48.1881 2.14259 48.6283 2.24073C49.0684 2.33888 49.4488 2.59545 49.686 2.95414L51.0709 5.05835C51.3032 5.41953 51.3733 5.85129 51.266 6.26019C51.1586 6.66909 50.8825 7.02221 50.4975 7.24309L49.9673 7.54515L47.0026 5.92418L44.092 4.30325ZM35.5116 14.9854C35.4366 15.0269 35.3473 15.0395 35.2624 15.0208C35.1776 15.002 35.104 14.9532 35.0572 14.8847L33.0121 11.7536C32.9886 11.7194 32.9728 11.6812 32.9655 11.6412C32.9582 11.6012 32.9596 11.5602 32.9697 11.5208C32.9798 11.4813 32.9984 11.4441 33.0243 11.4115C33.0501 11.3788 33.0828 11.3513 33.1203 11.3307L34.5486 10.5152L36.9507 14.1699L35.5116 14.9854ZM37.9569 14.3914L34.7975 9.57887L36.2041 8.78349L40.002 13.2336L37.9569 14.3914ZM40.8351 13.1128L36.5828 8.07875L34.0076 5.05835C33.9769 5.02305 33.9404 4.99248 33.8994 4.96774L31.2485 3.59848L36.6586 1.00091L46.3967 6.29669L49.8699 8.19956L63.5465 15.66L50.4109 24.2782L40.8351 13.1128ZM72.5922 40.8702C72.9783 40.6505 73.4423 40.5823 73.8824 40.6804C74.3226 40.7785 74.7029 41.0351 74.9401 41.3938L76.3143 43.498C76.5504 43.8573 76.6238 44.289 76.5183 44.6986C76.4129 45.1081 76.1371 45.462 75.7516 45.6827L72.4407 47.5554L72.2567 44.3638L72.062 41.1622L72.5922 40.8702ZM90.8673 4.2831C91.4662 4.22818 92.0695 4.33358 92.6062 4.58684C93.1429 4.84011 93.5908 5.23074 93.897 5.71277C94.2172 6.1843 94.3871 6.73064 94.3871 7.28841C94.3871 7.84618 94.2172 8.39252 93.897 8.86406L92.3497 11.1596L92.3497 11.0589C92.3496 10.7959 92.3279 10.5334 92.2848 10.2736C92.2953 10.1967 92.2953 10.1189 92.2848 10.042C92.2418 9.74617 92.1767 9.4535 92.09 9.16608L92.09 9.08555C92.0035 8.81915 91.9024 8.55704 91.7871 8.30025L91.6788 8.0888C91.5491 7.80696 91.3972 7.53439 91.2244 7.27329C91.0513 7.01153 90.8565 6.75983 90.6618 6.51819L90.4995 6.33698C90.3052 6.12267 90.0993 5.91771 89.8827 5.72284L89.8286 5.67249C89.5885 5.47059 89.3356 5.28232 89.0712 5.10868L88.8764 4.97779C88.64 4.82702 88.3943 4.68918 88.1407 4.565C88.1144 4.54466 88.0853 4.52774 88.0541 4.51467L90.8673 4.2831ZM86.3012 4.6254C88.0652 5.10411 89.5714 6.18218 90.5211 7.64581C91.4762 9.10807 91.8082 10.8501 91.4516 12.5288L91.3867 12.8107C90.9319 14.5713 89.7451 16.0921 88.0866 17.0393L70.6229 25.436L55.8751 32.4836L33.0338 43.4779L32.0383 41.9576C34.7434 40.4138 37.4484 38.8768 40.1534 37.3464C40.3889 37.2071 40.5575 36.9885 40.6239 36.7363C40.6903 36.4841 40.6494 36.2177 40.5097 35.9929C40.3701 35.7681 40.1425 35.6022 39.8744 35.5299C39.6064 35.4575 39.3187 35.4843 39.0714 35.6047L30.9455 40.2058L29.9825 38.7358L64.3472 15.9922L64.4662 15.9217L80.3286 5.34025C81.2084 4.83789 82.1921 4.51369 83.2157 4.38879C84.2392 4.26389 85.2795 4.34109 86.2688 4.61536L86.3012 4.6254ZM23.999 32.5239L26.7689 31.1949L35.0572 34.4066L29.5389 38.1821L29.5389 38.1015L29.4848 38.162L23.999 32.5239ZM29.3441 44.5048L27.3424 41.4844L29.3874 39.2795L30.2639 40.6286C30.0156 40.7701 29.838 40.9976 29.77 41.261C29.702 41.5244 29.7493 41.8021 29.9014 42.0331C30.0534 42.264 30.2979 42.4293 30.581 42.4926C30.8641 42.5558 31.1626 42.5119 31.4108 42.3704L32.3305 43.7698L29.3441 44.5048ZM38.8226 49.5388L36.2906 51.2201L33.38 44.1725L33.4666 44.1725L33.4666 44.1021L39.5908 41.2629L38.8226 49.5388ZM60.7117 53.3848C60.6354 53.4254 60.5451 53.4365 60.4601 53.4158C60.3752 53.3951 60.3023 53.3442 60.2572 53.274L58.2014 50.1529C58.1781 50.1174 58.1627 50.0778 58.1561 50.0367C58.1495 49.9955 58.1518 49.9535 58.1629 49.9131C58.1739 49.8728 58.1936 49.8349 58.2207 49.8017C58.2477 49.7686 58.2816 49.7408 58.3204 49.72L59.7487 48.9146L62.1508 52.5693L60.7117 53.3848ZM63.1462 52.7908L59.9975 47.9783L62.0425 46.8104L62.2806 47.2936L64.5636 51.9954L63.1462 52.7908ZM67.1064 55.6299L67.1064 55.5091L65.4076 51.9853L62.5836 46.1861L56.5243 32.987L68.989 26.9462L70.4606 26.2314L71.337 40.9709L71.5642 44.6558L72.181 55.1869L67.2254 58.4691L67.1064 55.6299Z" fill="#D21E28" fill-opacity="0.3"></path><path d="M172.299 96.9289C172.347 96.894 172.385 96.8496 172.411 96.799C172.437 96.7485 172.451 96.693 172.451 96.6369L172.029 89.5893L175.675 87.5153C175.949 87.3614 176.187 87.1586 176.376 86.9186C176.565 86.6786 176.702 86.4062 176.777 86.117C176.853 85.8278 176.866 85.5276 176.816 85.2336C176.766 84.9397 176.654 84.6578 176.487 84.4043L175.113 82.3001C174.774 81.787 174.232 81.4196 173.603 81.278C172.974 81.1365 172.311 81.2325 171.758 81.545L171.564 81.6557L170.709 67.1779L188.021 58.8718C188.927 58.3585 189.715 57.6831 190.339 56.8847C190.963 56.0863 191.411 55.1808 191.657 54.2204L191.722 53.9486L194.059 50.4953C194.446 49.9149 194.651 49.2453 194.651 48.5622C194.651 47.879 194.446 47.2095 194.059 46.6291C193.676 46.043 193.124 45.5683 192.466 45.2587C191.809 44.9491 191.071 44.817 190.337 44.8773L186.008 45.2297C184.936 44.9451 183.812 44.8715 182.707 45.0136C181.602 45.1558 180.541 45.5105 179.592 46.0553L163.643 56.5361L150.205 49.2065L150.399 49.0958C150.951 48.7812 151.346 48.2761 151.498 47.6912C151.65 47.1062 151.547 46.489 151.211 45.9747L149.837 43.8705C149.497 43.3595 148.954 42.9938 148.326 42.8524C147.698 42.7111 147.036 42.8056 146.483 43.1154L142.836 45.1894L136.344 41.6253C136.289 41.598 136.228 41.5837 136.166 41.5837C136.103 41.5837 136.042 41.598 135.987 41.6253L129.798 44.5954C129.739 44.6256 129.69 44.6692 129.654 44.722C129.618 44.7748 129.597 44.8351 129.592 44.8974C129.576 44.9569 129.576 45.0192 129.592 45.0787C129.628 45.1289 129.676 45.1704 129.733 45.1995L132.914 46.8506L135.197 49.5187L133.553 50.455C133.511 50.4786 133.475 50.5097 133.447 50.5463C133.418 50.583 133.398 50.6245 133.387 50.6685C133.376 50.7125 133.374 50.7581 133.382 50.8027C133.39 50.8472 133.408 50.8899 133.433 50.9282L133.617 51.2101L132.189 52.0256C131.949 52.165 131.777 52.3864 131.71 52.6424C131.644 52.8984 131.687 53.1685 131.832 53.3948L133.877 56.5159C134.027 56.7394 134.265 56.8993 134.54 56.9614C134.815 57.0236 135.105 56.9829 135.349 56.8482L136.777 56.0327L136.961 56.3146C137.012 56.3919 137.094 56.4477 137.189 56.4702C137.284 56.4927 137.384 56.4803 137.469 56.4354L139.904 55.046L149.285 66.0302L135.327 75.2726L126.184 71.7287L122.267 73.6013L128.402 79.9542L125.892 82.6625L128.456 86.579L132.124 85.6426L135.37 93.6064L138.952 91.2304L139.752 82.0383L155.279 74.5678L161.176 87.5052L158.731 88.8946C158.649 88.9407 158.589 89.015 158.565 89.1015C158.54 89.1881 158.553 89.28 158.601 89.3577L158.796 89.6497L157.357 90.4652C157.121 90.6061 156.954 90.8264 156.889 91.0798C156.825 91.3333 156.868 91.6002 157.011 91.8244L159.056 94.9455C159.205 95.1663 159.441 95.3243 159.714 95.3863C159.986 95.4483 160.274 95.4093 160.516 95.2777L161.955 94.4723L162.139 94.7542C162.165 94.7927 162.198 94.8261 162.238 94.8525C162.277 94.8789 162.321 94.8978 162.369 94.9081C162.416 94.9184 162.465 94.9199 162.513 94.9125C162.561 94.9051 162.607 94.8889 162.648 94.8649L164.292 93.9387L165.796 97.0396L165.916 100.433C165.922 100.492 165.94 100.55 165.97 100.604C166.009 100.657 166.061 100.702 166.121 100.735C166.179 100.765 166.244 100.78 166.31 100.78C166.377 100.78 166.442 100.765 166.5 100.735L172.299 96.9289ZM143.637 45.5821L146.883 43.7094C147.269 43.4897 147.733 43.4214 148.173 43.5195C148.613 43.6177 148.994 43.8743 149.231 44.2329L150.616 46.3372C150.848 46.6983 150.918 47.1301 150.811 47.539C150.704 47.9479 150.427 48.301 150.042 48.5219L149.512 48.824L146.548 47.203L143.637 45.5821ZM135.057 56.2642C134.982 56.3057 134.892 56.3184 134.807 56.2996C134.723 56.2808 134.649 56.232 134.602 56.1635L132.557 53.0324C132.534 52.9982 132.518 52.96 132.51 52.92C132.503 52.88 132.505 52.839 132.515 52.7996C132.525 52.7601 132.543 52.7229 132.569 52.6903C132.595 52.6576 132.628 52.6301 132.665 52.6095L134.094 51.794L136.496 55.4487L135.057 56.2642ZM137.502 55.6702L134.342 50.8577L135.749 50.0623L139.547 54.5124L137.502 55.6702ZM140.38 54.3916L136.128 49.3576L133.553 46.3372C133.522 46.3019 133.485 46.2713 133.444 46.2465L130.793 44.8773L136.203 42.2797L145.942 47.5755L149.415 49.4784L163.091 56.9388L149.956 65.557L140.38 54.3916ZM172.137 82.149C172.523 81.9293 172.987 81.8611 173.427 81.9592C173.868 82.0573 174.248 82.3139 174.485 82.6726L175.859 84.7768C176.095 85.1361 176.169 85.5678 176.063 85.9774C175.958 86.3869 175.682 86.7408 175.297 86.9615L171.986 88.8342L171.802 85.6426L171.607 82.441L172.137 82.149ZM190.412 45.5619C191.011 45.507 191.614 45.6124 192.151 45.8657C192.688 46.1189 193.136 46.5095 193.442 46.9916C193.762 47.4631 193.932 48.0095 193.932 48.5672C193.932 49.125 193.762 49.6713 193.442 50.1429L191.895 52.4384L191.895 52.3377C191.895 52.0748 191.873 51.8122 191.83 51.5524C191.84 51.4755 191.84 51.3977 191.83 51.3208C191.787 51.025 191.722 50.7323 191.635 50.4449L191.635 50.3644C191.548 50.098 191.447 49.8359 191.332 49.5791L191.224 49.3676C191.094 49.0858 190.942 48.8132 190.769 48.5521C190.596 48.2903 190.401 48.0386 190.207 47.797L190.044 47.6158C189.85 47.4015 189.644 47.1965 189.428 47.0017L189.374 46.9513C189.133 46.7494 188.881 46.5611 188.616 46.3875L188.421 46.2566C188.185 46.1058 187.939 45.968 187.686 45.8438C187.659 45.8235 187.63 45.8065 187.599 45.7935L190.412 45.5619ZM185.846 45.9042C187.61 46.3829 189.116 47.461 190.066 48.9246C191.021 50.3869 191.353 52.1289 190.997 53.8076L190.932 54.0895C190.477 55.8501 189.29 57.3709 187.632 58.3181L170.168 66.7148L155.42 73.7624L132.579 84.7567L131.583 83.2364C134.288 81.6926 136.993 80.1556 139.698 78.6252C139.934 78.4859 140.102 78.2673 140.169 78.0151C140.235 77.7629 140.194 77.4965 140.055 77.2717C139.915 77.0469 139.687 76.881 139.419 76.8087C139.151 76.7363 138.864 76.7631 138.616 76.8835L130.49 81.4846L129.527 80.0146L163.892 57.271L164.011 57.2005L179.873 46.6191C180.753 46.1167 181.737 45.7925 182.761 45.6676C183.784 45.5427 184.824 45.6199 185.814 45.8942L185.846 45.9042ZM123.544 73.8027L126.314 72.4737L134.602 75.6854L129.084 79.4609L129.084 79.3803L129.03 79.4408L123.544 73.8027ZM128.889 85.7836L126.887 82.7632L128.932 80.5583L129.809 81.9074C129.561 82.0489 129.383 82.2764 129.315 82.5398C129.247 82.8032 129.294 83.0809 129.446 83.3119C129.598 83.5429 129.843 83.7082 130.126 83.7714C130.409 83.8347 130.707 83.7907 130.956 83.6492L131.875 85.0486L128.889 85.7836ZM138.367 90.8176L135.836 92.4989L132.925 85.4513L133.012 85.4513L133.012 85.3809L139.136 82.5417L138.367 90.8176ZM160.257 94.6636C160.18 94.7042 160.09 94.7153 160.005 94.6946C159.92 94.6739 159.847 94.623 159.802 94.5528L157.746 91.4317C157.723 91.3962 157.708 91.3566 157.701 91.3155C157.694 91.2743 157.697 91.2323 157.708 91.192C157.719 91.1516 157.739 91.1137 157.766 91.0805C157.793 91.0474 157.827 91.0196 157.865 90.9988L159.294 90.1934L161.696 93.8481L160.257 94.6636ZM162.691 94.0696L159.542 89.2571L161.587 88.0892L161.826 88.5724L164.109 93.2742L162.691 94.0696ZM166.651 96.9087L166.651 96.7879L164.953 93.2641L162.128 87.4649L156.069 74.2658L168.534 68.225L170.006 67.5102L170.882 82.2497L171.109 85.9346L171.726 96.4657L166.77 99.7479L166.651 96.9087Z" fill="#D21E28" fill-opacity="0.3"></path><path d="M10.8358 92.2158L10.6146 91.4476C10.6025 91.4059 10.5996 91.3624 10.606 91.3196C10.6124 91.2768 10.628 91.2357 10.6518 91.1987C10.6756 91.1616 10.7072 91.1294 10.7447 91.1039C10.7821 91.0784 10.8247 91.0602 10.8699 91.0504C10.9147 91.0392 10.9614 91.0365 11.0074 91.0424C11.0533 91.0484 11.0975 91.0629 11.1373 91.085C11.1772 91.1072 11.2118 91.1366 11.2392 91.1714C11.2665 91.2063 11.2861 91.2459 11.2967 91.2879C11.4787 91.92 11.658 92.5424 11.8344 93.1551C11.8613 93.2379 11.8525 93.3272 11.8098 93.404C11.7671 93.4809 11.6938 93.5391 11.6056 93.5665C11.5149 93.5893 11.4183 93.5789 11.3356 93.5375C11.2529 93.4961 11.1903 93.4269 11.1607 93.3439L10.8358 92.2158ZM10.1898 89.5835C10.0078 88.9514 9.94071 88.2906 9.84229 87.6376C9.83564 87.5953 9.83809 87.5522 9.84952 87.5108C9.86094 87.4695 9.8811 87.4306 9.90881 87.3965C9.93653 87.3625 9.97126 87.3339 10.011 87.3124C10.0507 87.2909 10.0946 87.277 10.1401 87.2715C10.1856 87.2653 10.2319 87.2676 10.2764 87.2782C10.3208 87.2889 10.3626 87.3076 10.3992 87.3334C10.4358 87.3592 10.4666 87.3915 10.4896 87.4285C10.5127 87.4654 10.5276 87.5063 10.5336 87.5486C10.6292 88.1919 10.7457 88.8299 10.8803 89.453C10.8964 89.5384 10.8759 89.6263 10.8232 89.6979C10.7706 89.7694 10.6899 89.819 10.5986 89.836C10.5539 89.8445 10.5079 89.8446 10.4631 89.8365C10.4184 89.8284 10.3758 89.8122 10.3378 89.7887C10.2999 89.7653 10.2672 89.7351 10.2418 89.6998C10.2164 89.6646 10.1987 89.6251 10.1898 89.5835ZM11.8169 95.2337C11.7936 95.1551 11.8021 95.0712 11.841 94.9981C11.8798 94.925 11.9462 94.8677 12.0275 94.8372C12.1158 94.8094 12.2123 94.8148 12.2963 94.8523C12.3804 94.8897 12.4453 94.9563 12.4774 95.0378C12.6724 95.5207 12.8724 95.9816 13.1016 96.4664L13.2603 96.8229C13.2795 96.862 13.2901 96.9043 13.2915 96.9472C13.2929 96.9902 13.285 97.033 13.2684 97.073C13.2518 97.1131 13.2267 97.1497 13.1946 97.1806C13.1625 97.2116 13.1242 97.2362 13.0817 97.2531C12.9977 97.286 12.9031 97.2867 12.8185 97.2551C12.7339 97.2235 12.6661 97.1622 12.6298 97.0844L12.4607 96.7304C12.2343 96.2553 12.0343 95.7944 11.8253 95.2629L11.8169 95.2337ZM9.55058 85.73L9.53658 85.6813C9.47511 85.04 9.41851 84.3766 9.38561 83.7177C9.38256 83.6325 9.41481 83.5495 9.47571 83.4858C9.53659 83.4221 9.62145 83.3827 9.71274 83.3756C9.75949 83.3725 9.80642 83.3783 9.8507 83.3926C9.89496 83.4069 9.93565 83.4294 9.97029 83.4588C10.0049 83.4882 10.0328 83.5238 10.0522 83.5635C10.0716 83.6032 10.0822 83.6461 10.0832 83.6897C10.1238 84.3362 10.1644 84.9828 10.2363 85.6215C10.2444 85.7066 10.2158 85.7911 10.157 85.8566C10.0981 85.9221 10.0138 85.9631 9.92239 85.9708C9.84657 85.9669 9.77423 85.94 9.71649 85.8941C9.65875 85.8482 9.61882 85.786 9.60284 85.7169L9.55058 85.73ZM13.5033 98.7949C13.4837 98.7229 13.4914 98.6469 13.5251 98.5796C13.5588 98.5123 13.6164 98.4579 13.6882 98.4256C13.7287 98.4049 13.7733 98.3921 13.8193 98.3882C13.8654 98.3843 13.9117 98.3892 13.9556 98.4028C13.9995 98.4163 14.0399 98.4381 14.0742 98.4668C14.1086 98.4956 14.1362 98.5306 14.1554 98.5697C14.4621 99.1291 14.7953 99.7027 15.1494 100.271C15.1718 100.308 15.1861 100.349 15.1917 100.391C15.1972 100.433 15.1938 100.475 15.1816 100.516C15.1694 100.557 15.1487 100.595 15.1207 100.628C15.0926 100.662 15.0578 100.689 15.0182 100.71C14.937 100.753 14.841 100.764 14.7508 100.742C14.6606 100.72 14.5834 100.665 14.5357 100.591C14.1816 100.022 13.8456 99.4391 13.5333 98.8603L13.5033 98.7949ZM9.33578 81.8331L9.31338 81.7553C9.31743 81.1081 9.31867 80.4511 9.35127 79.7863C9.35511 79.7011 9.39507 79.6208 9.46241 79.563C9.52974 79.5052 9.61895 79.4746 9.7105 79.4779C9.7563 79.4782 9.80155 79.4874 9.84341 79.5046C9.88527 79.5219 9.92289 79.547 9.95394 79.5783C9.985 79.6096 10.0088 79.6465 10.024 79.6867C10.0391 79.727 10.0453 79.7696 10.042 79.8122C10.0275 80.462 10.013 81.1118 10.0166 81.7467C10.0186 81.7894 10.0111 81.8321 9.99461 81.872C9.97814 81.9119 9.95305 81.9482 9.92087 81.9787C9.8887 82.0092 9.85013 82.0332 9.80757 82.0493C9.765 82.0653 9.71934 82.0731 9.67343 82.0721C9.6034 82.0634 9.53811 82.0344 9.48687 81.9891C9.43562 81.9439 9.40103 81.8847 9.38803 81.8201L9.33578 81.8331ZM15.5825 102.164C15.5641 102.097 15.5691 102.025 15.5966 101.961C15.6242 101.896 15.673 101.841 15.7361 101.803C15.8136 101.757 15.9073 101.742 15.9967 101.761C16.0861 101.78 16.1639 101.831 16.213 101.903C16.5824 102.447 16.9727 102.985 17.3811 103.509C17.4319 103.581 17.4518 103.667 17.4368 103.752C17.4218 103.837 17.373 103.914 17.3001 103.967C17.2223 104.016 17.1265 104.035 17.0338 104.019C16.9411 104.003 16.8589 103.954 16.8052 103.882C16.3968 103.358 16.0008 102.8 15.6314 102.256L15.5825 102.164ZM9.48548 77.9184L9.45468 77.8114C9.51379 77.1609 9.58332 76.5077 9.66613 75.8617C9.67114 75.8191 9.68522 75.7779 9.70756 75.7404C9.7299 75.7029 9.76004 75.67 9.79621 75.6435C9.83239 75.617 9.87389 75.5975 9.91827 75.5861C9.96265 75.5747 10.009 75.5717 10.0547 75.5772C10.1005 75.5818 10.1448 75.5949 10.185 75.6157C10.2253 75.6365 10.2607 75.6645 10.2891 75.6982C10.3176 75.7319 10.3386 75.7705 10.3508 75.8118C10.3631 75.8531 10.3663 75.8962 10.3604 75.9387C10.2748 76.575 10.2025 77.2184 10.1538 77.8664C10.1455 77.9513 10.1013 78.0297 10.0309 78.0844C9.96059 78.139 9.86982 78.1655 9.77852 78.158C9.72035 78.1425 9.66779 78.1126 9.62638 78.0716C9.58498 78.0305 9.55627 77.9798 9.54332 77.9248L9.48548 77.9184ZM18.0101 105.343C17.9935 105.281 17.9954 105.217 18.0156 105.157C18.0359 105.097 18.0736 105.043 18.1246 105.001C18.1625 104.96 18.2108 104.928 18.2652 104.908C18.3197 104.887 18.3786 104.88 18.4368 104.886C18.495 104.892 18.5507 104.912 18.5989 104.942C18.6472 104.973 18.6866 105.015 18.7136 105.063C19.1374 105.562 19.5743 106.068 20.0294 106.559C20.0595 106.591 20.0825 106.629 20.097 106.669C20.1115 106.709 20.1173 106.752 20.1139 106.795C20.1105 106.837 20.0981 106.879 20.0773 106.917C20.0566 106.955 20.0279 106.989 19.993 107.016C19.9221 107.07 19.8315 107.097 19.74 107.091C19.6485 107.085 19.5632 107.046 19.5016 106.982C19.0437 106.482 18.5935 105.969 18.1566 105.462L18.0101 105.343ZM9.99277 74.0396C9.97085 74.0004 9.95843 73.9572 9.95636 73.9131C10.0733 73.269 10.2007 72.6223 10.3414 71.9827C10.3497 71.9407 10.3668 71.9007 10.3919 71.865C10.4169 71.8292 10.4493 71.7985 10.4872 71.7745C10.5251 71.7505 10.5677 71.7337 10.6126 71.7252C10.6576 71.7167 10.7038 71.7165 10.7488 71.7247C10.8412 71.742 10.9224 71.7927 10.9749 71.8655C11.0273 71.9383 11.0467 72.0275 11.0288 72.1135C10.8853 72.7434 10.7551 73.3804 10.6458 74.0122C10.6396 74.0542 10.6245 74.0946 10.6014 74.1312C10.5783 74.1677 10.5478 74.1997 10.5114 74.2252C10.4751 74.2507 10.4336 74.2693 10.3895 74.2799C10.3455 74.2905 10.2996 74.2929 10.2545 74.287C10.2022 74.265 10.1564 74.2316 10.1209 74.1897C10.0854 74.1477 10.0613 74.0985 10.0506 74.046L9.99277 74.0396ZM20.7537 108.296C20.7373 108.241 20.7369 108.183 20.7525 108.128C20.7681 108.073 20.7991 108.023 20.8425 107.982C20.8756 107.952 20.9149 107.929 20.9579 107.913C21.001 107.897 21.0471 107.89 21.0933 107.891C21.1396 107.892 21.1851 107.901 21.2273 107.919C21.2695 107.937 21.3074 107.962 21.3388 107.994C21.8196 108.458 22.3109 108.919 22.8488 109.348C22.9136 109.41 22.9508 109.492 22.9529 109.579C22.9549 109.665 22.9217 109.749 22.8598 109.814C22.8282 109.845 22.7904 109.869 22.7486 109.886C22.7068 109.903 22.6618 109.912 22.6162 109.913C22.5706 109.914 22.5253 109.906 22.483 109.89C22.4406 109.875 22.4019 109.851 22.3692 109.822C21.8598 109.376 21.3657 108.905 20.8479 108.429C20.8144 108.395 20.7879 108.356 20.7697 108.313L20.7537 108.296ZM10.8319 70.2239C10.8016 70.177 10.7861 70.1231 10.7871 70.0683C10.9619 69.4306 11.1395 68.8026 11.359 68.1642C11.3882 68.0821 11.4498 68.0133 11.5313 67.9717C11.6129 67.9301 11.7083 67.9188 11.7985 67.94C11.8868 67.9672 11.9607 68.0245 12.0054 68.1004C12.0501 68.1763 12.0623 68.2651 12.0395 68.349C11.8381 68.9724 11.6577 69.5907 11.4592 70.2239C11.449 70.2659 11.4298 70.3055 11.4029 70.3405C11.3759 70.3755 11.3417 70.4052 11.3022 70.4276C11.2627 70.4501 11.2188 70.465 11.173 70.4714C11.1273 70.4778 11.0806 70.4756 11.0357 70.465C10.9993 70.4344 10.9702 70.397 10.9504 70.3552C10.9307 70.3134 10.9207 70.2682 10.9211 70.2225L10.8319 70.2239ZM23.7709 110.994C23.757 110.941 23.7571 110.886 23.7712 110.834C23.7854 110.781 23.8131 110.733 23.8521 110.692C23.9158 110.631 24.0019 110.594 24.0936 110.588C24.1854 110.583 24.2759 110.609 24.3476 110.663C24.8618 111.087 25.4074 111.503 25.9474 111.9C26.0175 111.955 26.062 112.033 26.0719 112.118C26.0817 112.203 26.0561 112.288 26.0003 112.356C25.9725 112.39 25.9379 112.418 25.8983 112.439C25.8588 112.461 25.8151 112.474 25.7699 112.48C25.7246 112.485 25.6786 112.482 25.6345 112.471C25.5905 112.46 25.5492 112.441 25.5131 112.415C24.9599 112.011 24.4115 111.585 23.8841 111.153C23.8368 111.116 23.8029 111.067 23.787 111.011L23.7709 110.994ZM12.0656 66.4558C12.0489 66.3926 12.0532 66.3261 12.0779 66.2652C12.3029 65.6462 12.5517 65.0318 12.8032 64.4271C12.8191 64.3858 12.8439 64.3479 12.876 64.3159C12.9082 64.2838 12.9471 64.2582 12.9903 64.2406C13.0334 64.223 13.08 64.2138 13.1271 64.2136C13.1743 64.2133 13.221 64.222 13.2644 64.2391C13.3066 64.2552 13.345 64.2789 13.3774 64.3088C13.4098 64.3387 13.4355 64.3744 13.4531 64.4136C13.4706 64.4528 13.4797 64.4949 13.4797 64.5373C13.4797 64.5798 13.4706 64.6219 13.4531 64.6611C13.2016 65.2658 12.9493 65.829 12.7459 66.4843C12.7127 66.5643 12.6476 66.6293 12.5641 66.6656C12.4806 66.702 12.3853 66.7069 12.298 66.6794C12.2467 66.6636 12.2003 66.6366 12.1626 66.6007C12.125 66.5647 12.0972 66.5208 12.0817 66.4727L12.0656 66.4558ZM27.1189 113.401C27.1062 113.354 27.1045 113.306 27.1141 113.258C27.1237 113.211 27.1442 113.166 27.1743 113.127C27.2012 113.092 27.2351 113.064 27.274 113.042C27.313 113.02 27.3562 113.005 27.4011 112.999C27.4461 112.993 27.492 112.994 27.5362 113.005C27.5804 113.015 27.6219 113.033 27.6586 113.058C28.2111 113.421 28.8061 113.814 29.3815 114.14C29.4614 114.184 29.5195 114.256 29.5435 114.339C29.5676 114.423 29.5557 114.512 29.5104 114.587C29.4878 114.625 29.4573 114.658 29.4207 114.685C29.3841 114.711 29.3421 114.731 29.2973 114.742C29.2524 114.753 29.2056 114.756 29.1596 114.75C29.1136 114.744 29.0694 114.729 29.0296 114.707C28.4353 114.355 27.8403 113.961 27.2801 113.611C27.2379 113.587 27.2015 113.555 27.1733 113.517C27.145 113.479 27.1256 113.436 27.1161 113.391L27.1189 113.401ZM13.6062 62.8197C13.5848 62.7491 13.5909 62.6738 13.6233 62.607C13.909 62.0042 14.2212 61.4156 14.5229 60.8296C14.5455 60.7919 14.5759 60.7587 14.6126 60.7321C14.6492 60.7055 14.6911 60.6861 14.736 60.6749C14.7808 60.6637 14.8277 60.661 14.8737 60.667C14.9196 60.673 14.9638 60.6876 15.0037 60.7098C15.0824 60.7526 15.1397 60.8226 15.1633 60.9045C15.1869 60.9864 15.1748 61.0737 15.1297 61.1474C14.8252 61.7237 14.5318 62.3388 14.2377 62.9124C14.1917 62.9856 14.1165 63.039 14.0285 63.061C13.9404 63.0829 13.8466 63.0717 13.7674 63.0297C13.7289 63.0095 13.6952 62.9821 13.6684 62.9494C13.6417 62.9166 13.6224 62.8791 13.6117 62.8392L13.6062 62.8197ZM30.6874 115.524C30.6691 115.439 30.6833 115.35 30.7275 115.274C30.7769 115.201 30.8537 115.149 30.9428 115.127C31.0318 115.105 31.1265 115.114 31.2082 115.154C31.8046 115.474 32.4218 115.789 33.0335 116.085C33.1121 116.128 33.1695 116.198 33.1931 116.28C33.2167 116.362 33.2046 116.449 33.1595 116.523C33.1116 116.594 33.0364 116.646 32.9491 116.668C32.8619 116.689 32.769 116.68 32.6892 116.64C32.0538 116.34 31.3948 116.035 30.827 115.697C30.7615 115.655 30.7125 115.594 30.6874 115.524ZM15.5274 59.3388C15.5047 59.2558 15.5153 59.168 15.5571 59.0917C15.9062 58.5148 16.2686 57.9449 16.6366 57.3946C16.6842 57.3203 16.7611 57.2662 16.8509 57.2439C16.9406 57.2215 17.0363 57.2325 17.1174 57.2747C17.1961 57.3175 17.2534 57.3875 17.277 57.4694C17.3006 57.5514 17.2886 57.6386 17.2434 57.7123C16.8859 58.2601 16.5311 58.8176 16.1896 59.3822C16.142 59.4565 16.0652 59.5105 15.9754 59.5329C15.8856 59.5553 15.79 59.5442 15.7089 59.5021C15.6618 59.4935 15.6174 59.4754 15.5789 59.449C15.5403 59.4225 15.5084 59.3885 15.4856 59.3493L15.5274 59.3388ZM34.4569 117.294C34.434 117.22 34.439 117.142 34.4712 117.071C34.5188 116.997 34.5957 116.943 34.6855 116.921C34.7752 116.898 34.8708 116.909 34.952 116.951C35.5761 117.213 36.2212 117.469 36.8683 117.693C36.953 117.726 37.021 117.788 37.0581 117.866C37.0951 117.944 37.0985 118.032 37.0674 118.113C37.0524 118.153 37.0286 118.191 36.9973 118.222C36.966 118.254 36.928 118.28 36.8857 118.297C36.8433 118.314 36.7976 118.323 36.7513 118.324C36.705 118.324 36.6592 118.315 36.6167 118.298C35.9564 118.066 35.3531 117.8 34.6635 117.545C34.5983 117.534 34.5375 117.506 34.4881 117.465C34.4387 117.424 34.4026 117.371 34.3837 117.312L34.4569 117.294ZM17.7849 56.0139C17.7687 55.9685 17.7644 55.9202 17.7722 55.8729C17.78 55.8257 17.7998 55.7808 17.8298 55.7421C18.2348 55.2033 18.6425 54.6743 19.074 54.1498C19.1017 54.1161 19.1364 54.0878 19.1759 54.0665C19.2155 54.0453 19.2591 54.0316 19.3044 54.0261C19.3497 54.0206 19.3957 54.0235 19.4397 54.0347C19.4838 54.0458 19.525 54.0649 19.5611 54.0909C19.6354 54.1445 19.684 54.2231 19.6964 54.3098C19.7087 54.3964 19.6839 54.4842 19.6272 54.5539C19.2111 55.0537 18.8033 55.5827 18.406 56.1091C18.3584 56.1834 18.2816 56.2375 18.1918 56.2599C18.102 56.2822 18.0064 56.2712 17.9253 56.229C17.8771 56.2115 17.8333 56.185 17.7966 56.1511C17.7599 56.1173 17.731 56.0768 17.7117 56.0321L17.7849 56.0139ZM38.3667 118.695C38.3457 118.637 38.3474 118.574 38.3713 118.517C38.4004 118.435 38.4629 118.366 38.5455 118.326C38.6282 118.286 38.7244 118.278 38.8136 118.303C39.4656 118.505 40.1356 118.692 40.7973 118.85C40.8418 118.861 40.8836 118.88 40.9202 118.905C40.9569 118.931 40.9877 118.963 41.0108 119C41.034 119.037 41.049 119.078 41.055 119.12C41.061 119.163 41.0579 119.206 41.0459 119.247C41.0205 119.329 40.962 119.399 40.8826 119.442C40.8032 119.485 40.709 119.498 40.6196 119.478C39.9419 119.303 39.2614 119.119 38.5942 118.941C38.53 118.929 38.4707 118.901 38.423 118.86C38.3754 118.818 38.3413 118.765 38.3249 118.706L38.3667 118.695ZM20.3326 52.9188C20.3168 52.8674 20.315 52.8132 20.3273 52.761C20.3397 52.7087 20.3658 52.6602 20.4033 52.6197C20.8536 52.1218 21.3276 51.6284 21.8072 51.1544C21.8696 51.0921 21.9559 51.0554 22.0473 51.0521C22.1387 51.0488 22.2278 51.0794 22.2951 51.137C22.363 51.1964 22.4032 51.2782 22.4073 51.3648C22.4113 51.4514 22.3788 51.5361 22.3166 51.6007C21.8446 52.0623 21.3811 52.5531 20.928 53.0414C20.8987 53.0744 20.8626 53.1017 20.8218 53.1216C20.781 53.1416 20.7364 53.1537 20.6905 53.1574C20.6446 53.1611 20.5984 53.1562 20.5546 53.143C20.5107 53.1299 20.4702 53.1087 20.4352 53.0808C20.3638 53.0484 20.3031 52.9987 20.2594 52.937L20.3326 52.9188ZM42.4112 119.709C42.3832 119.665 42.3687 119.615 42.3692 119.563C42.3883 119.48 42.4422 119.407 42.5191 119.36C42.596 119.314 42.6896 119.297 42.7794 119.315C43.4668 119.446 44.1514 119.567 44.8276 119.659C44.8727 119.665 44.916 119.679 44.955 119.701C44.9941 119.722 45.0279 119.751 45.0546 119.786C45.0812 119.82 45.1001 119.859 45.11 119.9C45.12 119.941 45.1208 119.984 45.1124 120.026C45.1062 120.068 45.0911 120.108 45.068 120.145C45.0449 120.181 45.0144 120.213 44.978 120.239C44.9417 120.264 44.9002 120.283 44.8562 120.294C44.8121 120.304 44.7662 120.307 44.7211 120.301C44.0316 120.202 43.3366 120.083 42.6387 119.955C42.5704 119.948 42.5057 119.923 42.4524 119.882C42.399 119.842 42.3593 119.788 42.338 119.727L42.4112 119.709ZM23.197 50.0679C23.1817 50.0128 23.1818 49.9551 23.1974 49.9001C23.2129 49.8451 23.2434 49.7948 23.2858 49.7539C23.7992 49.3063 24.3213 48.8634 24.8523 48.4252C24.8868 48.3972 24.927 48.3758 24.9705 48.3623C25.014 48.3488 25.0599 48.3435 25.1056 48.3466C25.1514 48.3498 25.1959 48.3613 25.2368 48.3806C25.2777 48.3999 25.314 48.4266 25.3437 48.4591C25.3739 48.4912 25.3969 48.5286 25.4114 48.569C25.4259 48.6095 25.4317 48.6522 25.4283 48.6948C25.4249 48.7373 25.4125 48.7788 25.3917 48.8168C25.371 48.8548 25.3423 48.8887 25.3074 48.9163C24.7901 49.3372 24.2679 49.78 23.7799 50.2248C23.7468 50.2549 23.7075 50.2786 23.6645 50.2943C23.6214 50.31 23.5753 50.3176 23.5291 50.3165C23.4828 50.3154 23.4373 50.3057 23.3951 50.2879C23.3529 50.2701 23.315 50.2447 23.2836 50.213C23.2162 50.1891 23.1598 50.1443 23.1238 50.0861L23.197 50.0679ZM46.5667 120.33L46.5359 120.223C46.5462 120.137 46.5923 120.058 46.6644 120.003C46.7365 119.948 46.8288 119.922 46.9217 119.929C47.4396 119.977 47.9652 120.013 48.4851 120.029L48.9946 120.048C49.0862 120.052 49.1725 120.089 49.2346 120.152C49.2968 120.214 49.3297 120.297 49.3262 120.382C49.3256 120.425 49.3159 120.467 49.2976 120.507C49.2793 120.546 49.2528 120.581 49.2196 120.611C49.1864 120.641 49.1473 120.664 49.1043 120.679C49.0614 120.695 49.0157 120.702 48.9697 120.701L48.4602 120.682C47.9165 120.661 47.3909 120.625 46.8521 120.582C46.764 120.585 46.6778 120.557 46.6095 120.506C46.5411 120.454 46.495 120.381 46.4796 120.3L46.5667 120.33ZM50.7606 120.463L50.7382 120.385C50.7374 120.299 50.7724 120.216 50.8358 120.153C50.8993 120.091 50.9863 120.054 51.0786 120.05C51.7582 120.037 52.4558 120.009 53.1583 119.959C53.2033 119.955 53.2485 119.96 53.2915 119.972C53.3344 119.985 53.3741 120.006 53.4081 120.034C53.4422 120.061 53.4699 120.095 53.4897 120.133C53.5095 120.17 53.5209 120.211 53.5232 120.253C53.5313 120.338 53.5028 120.423 53.4439 120.488C53.3851 120.554 53.3007 120.595 53.2093 120.602C52.4964 120.655 51.7883 120.686 51.0983 120.701C51.0513 120.711 51.0029 120.711 50.9558 120.702C50.9087 120.693 50.8641 120.676 50.8244 120.651C50.7848 120.626 50.751 120.593 50.725 120.556C50.6991 120.518 50.6816 120.476 50.6735 120.432L50.7606 120.463ZM54.9443 120.17L54.9303 120.121C54.9199 120.037 54.9456 119.952 55.0019 119.886C55.0582 119.819 55.1405 119.776 55.2309 119.765C55.952 119.675 56.6433 119.586 57.3048 119.498C57.3495 119.491 57.3952 119.492 57.4394 119.502C57.4835 119.511 57.5251 119.529 57.5616 119.554C57.5981 119.579 57.6288 119.611 57.6518 119.647C57.6748 119.683 57.6897 119.724 57.6955 119.765C57.7033 119.807 57.7022 119.85 57.6921 119.892C57.682 119.933 57.6632 119.973 57.6368 120.007C57.6103 120.042 57.5767 120.071 57.5379 120.094C57.4992 120.116 57.456 120.132 57.4109 120.139C56.7119 120.24 56.0206 120.329 55.3161 120.411C55.2668 120.429 55.2135 120.436 55.1607 120.432C55.1078 120.427 55.0569 120.411 55.0121 120.384C54.9673 120.358 54.9299 120.322 54.903 120.279C54.876 120.237 54.8603 120.189 54.8571 120.14L54.9443 120.17ZM59.0829 119.565C59.075 119.523 59.0762 119.481 59.0863 119.439C59.0964 119.398 59.1151 119.358 59.1416 119.324C59.1681 119.289 59.2017 119.259 59.2404 119.237C59.2792 119.214 59.3224 119.199 59.3675 119.192C60.0364 119.025 60.7277 118.936 61.405 118.799C61.4502 118.789 61.4971 118.787 61.5429 118.795C61.5886 118.802 61.6324 118.818 61.6715 118.841C61.7106 118.864 61.7443 118.895 61.7705 118.93C61.7968 118.966 61.815 119.006 61.8242 119.049C61.8349 119.091 61.8364 119.134 61.8286 119.177C61.8208 119.22 61.8039 119.26 61.7788 119.297C61.7538 119.333 61.7211 119.364 61.6828 119.389C61.6444 119.413 61.6012 119.43 61.5557 119.439C60.8763 119.608 60.1774 119.709 59.4945 119.828C59.4414 119.852 59.3826 119.863 59.3235 119.86C59.2645 119.857 59.2073 119.84 59.1573 119.811C59.1073 119.782 59.0662 119.741 59.0379 119.693C59.0097 119.644 58.9951 119.59 58.9957 119.535L59.0829 119.565ZM63.1808 118.742C63.1688 118.7 63.1661 118.657 63.1727 118.615C63.1794 118.573 63.1953 118.532 63.2195 118.496C63.2437 118.46 63.2757 118.428 63.3134 118.404C63.3512 118.38 63.3939 118.363 63.4389 118.354C64.1182 118.185 64.7871 118.018 65.456 117.851C65.5447 117.829 65.6392 117.841 65.7188 117.884C65.7983 117.926 65.8563 117.997 65.8801 118.079C65.8905 118.12 65.8921 118.163 65.8848 118.205C65.8774 118.247 65.8613 118.287 65.8373 118.323C65.8134 118.359 65.782 118.39 65.7451 118.415C65.7081 118.439 65.6663 118.457 65.622 118.467C64.9531 118.633 64.2738 118.803 63.5944 118.972C63.5438 118.996 63.4877 119.008 63.4311 119.006C63.3745 119.005 63.319 118.991 63.2696 118.966C63.2201 118.94 63.1783 118.903 63.1476 118.859C63.1169 118.815 63.0984 118.764 63.0937 118.711L63.1808 118.742ZM67.2528 117.789C67.2291 117.707 67.2398 117.62 67.2828 117.545C67.3259 117.471 67.398 117.414 67.4844 117.387C68.1219 117.228 68.7908 117.062 69.463 116.79C69.5513 116.762 69.6478 116.767 69.7318 116.805C69.8158 116.842 69.8808 116.909 69.9128 116.99C69.94 117.073 69.9329 117.161 69.8929 117.239C69.853 117.316 69.7832 117.377 69.6973 117.409C69.0034 117.644 68.322 117.846 67.635 118.027C67.5463 118.049 67.4518 118.038 67.3723 117.995C67.2928 117.952 67.2347 117.882 67.211 117.799L67.2528 117.789ZM71.1974 116.472C71.1748 116.396 71.183 116.315 71.2204 116.244C71.2579 116.173 71.3219 116.118 71.4004 116.088C72.0232 115.839 72.6537 115.577 73.2994 115.291C73.3838 115.255 73.4802 115.251 73.568 115.279C73.6558 115.308 73.728 115.368 73.7694 115.445C73.8085 115.524 73.8131 115.613 73.7822 115.695C73.7513 115.777 73.6874 115.844 73.6041 115.882C72.9479 116.171 72.307 116.435 71.6737 116.687C71.5869 116.72 71.4894 116.721 71.4024 116.688C71.3153 116.655 71.2457 116.591 71.2086 116.511L71.1974 116.472ZM74.9966 114.806C74.9748 114.734 74.9815 114.657 75.0154 114.589C75.0494 114.521 75.1083 114.467 75.1816 114.436C75.7799 114.141 76.3963 113.831 77.01 113.511C77.0927 113.469 77.1903 113.458 77.2813 113.483C77.3723 113.507 77.4493 113.564 77.4952 113.641C77.5377 113.717 77.5466 113.806 77.5202 113.888C77.4938 113.97 77.4341 114.04 77.3536 114.082C76.7295 114.405 76.1131 114.715 75.4939 115.015C75.411 115.051 75.3163 115.057 75.2293 115.03C75.1424 115.003 75.0698 114.946 75.0267 114.871L74.9966 114.806ZM78.6603 112.902C78.6423 112.833 78.6484 112.76 78.678 112.695C78.7075 112.629 78.7588 112.574 78.8244 112.538C79.4143 112.214 80.0091 111.867 80.6038 111.521C80.6418 111.497 80.6846 111.481 80.7296 111.473C80.7746 111.465 80.8208 111.466 80.8655 111.475C80.9102 111.484 80.9523 111.502 80.9894 111.527C81.0264 111.552 81.0575 111.584 81.0807 111.621C81.1064 111.656 81.124 111.696 81.1325 111.738C81.141 111.78 81.1402 111.823 81.1301 111.864C81.12 111.906 81.1009 111.945 81.0739 111.98C81.047 112.014 81.0127 112.043 80.9732 112.065C80.3813 112.421 79.7865 112.767 79.1861 113.094C79.147 113.116 79.1034 113.131 79.058 113.138C79.0126 113.145 78.9662 113.143 78.9216 113.133C78.8769 113.122 78.8349 113.104 78.798 113.079C78.761 113.053 78.7299 113.021 78.7065 112.984L78.6603 112.902ZM82.1997 110.8C82.1792 110.734 82.1821 110.663 82.2078 110.599C82.2336 110.534 82.2809 110.479 82.3428 110.441C82.9216 110.078 83.487 109.708 84.0497 109.328C84.0863 109.302 84.1281 109.283 84.1727 109.272C84.2172 109.261 84.2636 109.259 84.3092 109.265C84.3548 109.271 84.3986 109.285 84.438 109.308C84.4775 109.33 84.5119 109.359 84.5391 109.393C84.5925 109.464 84.6139 109.552 84.5988 109.638C84.5837 109.723 84.5332 109.8 84.4581 109.851C83.8955 110.231 83.3223 110.614 82.7331 110.98C82.6581 111.029 82.5653 111.048 82.475 111.033C82.3847 111.019 82.3043 110.971 82.2514 110.902L82.1997 110.8ZM85.5911 108.495C85.5738 108.433 85.5765 108.367 85.5987 108.306C85.6208 108.245 85.6617 108.191 85.7161 108.151C86.2732 107.752 86.817 107.345 87.3371 106.934C87.3717 106.905 87.4124 106.883 87.4568 106.869C87.5011 106.855 87.548 106.85 87.5946 106.854C87.6411 106.858 87.6862 106.871 87.727 106.893C87.7677 106.914 87.8033 106.943 87.8313 106.978C87.8611 107.009 87.8837 107.046 87.8979 107.086C87.9121 107.125 87.9175 107.167 87.9138 107.209C87.9102 107.251 87.8975 107.292 87.8766 107.329C87.8557 107.366 87.827 107.399 87.7922 107.425C87.254 107.851 86.7101 108.258 86.1454 108.67C86.1095 108.696 86.0685 108.715 86.0246 108.726C85.9807 108.738 85.9349 108.741 85.8897 108.736C85.8445 108.73 85.8008 108.717 85.7612 108.696C85.7216 108.675 85.6868 108.647 85.6588 108.614L85.5911 108.495ZM85.8407 99.3648C85.6587 98.7327 85.5679 98.0674 85.4723 97.4241C85.464 97.3817 85.4654 97.3381 85.4761 97.2961C85.4869 97.2541 85.5069 97.2147 85.5349 97.1803C85.5629 97.1459 85.5983 97.1173 85.6388 97.0962C85.6792 97.0752 85.724 97.0621 85.7701 97.058C85.8156 97.0518 85.8619 97.0541 85.9064 97.0647C85.9508 97.0754 85.9926 97.0941 86.0292 97.1199C86.0658 97.1457 86.0966 97.178 86.1196 97.215C86.1427 97.2519 86.1576 97.2928 86.1636 97.3351C86.2536 97.9589 86.3834 98.6041 86.5284 99.2246C86.5391 99.2666 86.5406 99.3103 86.5329 99.3529C86.5251 99.3955 86.5081 99.4362 86.4831 99.4726C86.458 99.509 86.4253 99.5403 86.387 99.5647C86.3487 99.5891 86.3054 99.6061 86.2599 99.6146C86.2072 99.6373 86.1494 99.6477 86.0915 99.6449C86.0336 99.6422 85.9772 99.6263 85.9273 99.5987C85.8775 99.5711 85.8356 99.5326 85.8053 99.4866C85.775 99.4405 85.7573 99.3883 85.7535 99.3344L85.8407 99.3648ZM86.384 101.251C86.3578 101.171 86.3662 101.085 86.4075 101.01C86.4488 100.936 86.5197 100.879 86.6051 100.852C86.6941 100.827 86.7901 100.835 86.8726 100.875C86.9552 100.915 87.0179 100.983 87.0473 101.065C87.2293 101.697 87.5026 102.296 87.7675 102.866C87.8008 102.947 87.7997 103.037 87.7646 103.117C87.7296 103.197 87.663 103.262 87.5785 103.299C87.536 103.315 87.4906 103.324 87.4447 103.323C87.3987 103.323 87.3533 103.315 87.311 103.298C87.2687 103.282 87.2303 103.257 87.1982 103.227C87.166 103.196 87.1408 103.16 87.1238 103.12C86.8533 102.531 86.6058 101.905 86.3756 101.222L86.384 101.251ZM85.2774 95.5027L85.2578 95.4346C85.2222 94.7729 85.2295 94.1097 85.2797 93.4488C85.2856 93.3623 85.3275 93.2814 85.3965 93.2233C85.4656 93.1652 85.5563 93.1345 85.6494 93.1377C85.6952 93.1404 85.7401 93.1515 85.7813 93.1704C85.8225 93.1893 85.8592 93.2156 85.8893 93.2479C85.9195 93.2802 85.9424 93.3177 85.9568 93.3583C85.9712 93.3989 85.9768 93.4417 85.9732 93.4843C85.9259 94.1242 85.92 94.7661 85.9555 95.4066C85.9573 95.4496 85.9499 95.4924 85.9337 95.5326C85.9175 95.5728 85.8928 95.6096 85.8611 95.6409C85.8294 95.6721 85.7913 95.6971 85.7491 95.7144C85.7068 95.7317 85.6612 95.741 85.6151 95.7416C85.5685 95.7508 85.5204 95.7508 85.4739 95.7419C85.4273 95.733 85.3832 95.7152 85.3443 95.6897C85.3054 95.6641 85.2726 95.6315 85.2479 95.5936C85.2232 95.5558 85.2071 95.5136 85.2007 95.4697L85.2774 95.5027ZM88.039 104.82C88.0191 104.751 88.0244 104.678 88.0541 104.612C88.0838 104.546 88.1362 104.492 88.2031 104.456C88.2836 104.417 88.3774 104.408 88.4651 104.43C88.5529 104.453 88.628 104.506 88.6751 104.578C88.8455 104.859 89.0368 105.134 89.2226 105.39C89.6257 105.04 90.026 104.679 90.4054 104.324C90.4722 104.262 90.5628 104.227 90.6572 104.227C90.7516 104.227 90.8423 104.262 90.9093 104.324C90.9701 104.387 91.0036 104.469 91.0032 104.554C91.0028 104.638 90.9685 104.72 90.9071 104.783C90.4991 105.156 90.0731 105.543 89.6233 105.926L89.8215 106.148C89.879 106.217 89.9052 106.304 89.8945 106.39C89.8838 106.477 89.8371 106.556 89.7643 106.61C89.7284 106.637 89.6874 106.656 89.6435 106.667C89.5996 106.678 89.5537 106.682 89.5086 106.676C89.4634 106.671 89.4197 106.658 89.3801 106.637C89.3405 106.616 89.3057 106.588 89.2777 106.555L88.9587 106.186L88.8841 106.121C88.8538 106.07 88.8375 106.014 88.8365 105.956C88.5837 105.623 88.3463 105.265 88.1165 104.895L88.039 104.82ZM85.5931 91.6196C85.5685 91.5741 85.5542 91.5245 85.5511 91.4737C85.7035 90.8079 85.9514 90.1641 86.2881 89.5597C86.3357 89.4854 86.4126 89.4314 86.5023 89.409C86.5921 89.3866 86.6877 89.3977 86.7689 89.4398C86.8095 89.4608 86.8451 89.4892 86.8737 89.5232C86.9022 89.5573 86.9232 89.5963 86.9352 89.6381C86.9472 89.6798 86.9501 89.7234 86.9436 89.7662C86.9372 89.809 86.9216 89.8501 86.8977 89.8872C86.5967 90.443 86.3711 91.0314 86.2259 91.639C86.2167 91.6804 86.1985 91.7196 86.1724 91.7543C86.1464 91.7889 86.113 91.8183 86.0744 91.8406C86.0358 91.8629 85.9927 91.8777 85.9477 91.884C85.9028 91.8904 85.8569 91.8881 85.8129 91.8774C85.7354 91.8673 85.664 91.833 85.6101 91.7802C85.5562 91.7273 85.5232 91.6591 85.5164 91.5866L85.5931 91.6196ZM90.6838 107.82C90.6692 107.771 90.6673 107.719 90.6783 107.669C90.6893 107.619 90.7127 107.573 90.7468 107.533C90.8061 107.468 90.89 107.426 90.9812 107.417C91.0724 107.408 91.1639 107.432 91.2368 107.484C91.6211 107.773 92.0415 108.018 92.4888 108.214C92.6422 108.28 92.7984 108.356 92.9623 108.419C93.0389 108.463 93.0945 108.533 93.1179 108.615C93.1413 108.696 93.1307 108.782 93.0883 108.856C93.0658 108.894 93.0353 108.927 92.9987 108.954C92.9621 108.981 92.9201 109 92.8753 109.011C92.8304 109.022 92.7836 109.025 92.7376 109.019C92.6916 109.013 92.6474 108.999 92.6076 108.976C92.4437 108.913 92.2875 108.837 92.1208 108.764C91.6398 108.535 91.1854 108.261 90.7648 107.945C90.6961 107.909 90.6411 107.853 90.6071 107.787L90.6838 107.82ZM91.7686 103.223C91.7528 103.172 91.751 103.118 91.7634 103.066C91.7757 103.013 91.8018 102.965 91.8394 102.924C92.321 102.419 92.7713 101.921 93.1694 101.436C93.2301 101.37 93.3156 101.327 93.4085 101.318C93.5015 101.308 93.5949 101.332 93.6697 101.384C93.7056 101.411 93.7355 101.443 93.7576 101.481C93.7797 101.518 93.7936 101.559 93.7986 101.602C93.8035 101.644 93.7993 101.687 93.7863 101.728C93.7732 101.769 93.7516 101.807 93.7226 101.84C93.3169 102.337 92.8903 102.84 92.3668 103.356C92.303 103.419 92.2152 103.456 92.122 103.46C92.0289 103.464 91.938 103.434 91.8685 103.376C91.8249 103.361 91.786 103.336 91.7552 103.304C91.7244 103.271 91.7027 103.233 91.6919 103.19L91.7686 103.223ZM87.6917 88.3655C87.6718 88.2965 87.6771 88.2232 87.7068 88.1573C87.7365 88.0914 87.7889 88.0366 87.8557 88.0015C88.0812 87.8827 88.3221 87.791 88.5726 87.7289C89.0781 87.6097 89.6057 87.5956 90.1177 87.6876C90.1628 87.6953 90.2058 87.7113 90.2442 87.7346C90.2826 87.7579 90.3157 87.788 90.3415 87.8233C90.3672 87.8585 90.3852 87.8982 90.3944 87.94C90.4036 87.9818 90.4038 88.0249 90.3949 88.0667C90.3876 88.1081 90.3714 88.1476 90.3473 88.183C90.3232 88.2184 90.2917 88.249 90.2547 88.2728C90.2176 88.2966 90.1758 88.3132 90.1317 88.3217C90.0876 88.3302 90.0421 88.3303 89.998 88.322C89.5851 88.2537 89.1615 88.267 88.7546 88.361C88.5599 88.4072 88.373 88.4783 88.1994 88.5724C88.1598 88.5933 88.1161 88.6067 88.071 88.6118C88.0258 88.617 87.98 88.6138 87.9362 88.6024C87.8923 88.5911 87.8513 88.5718 87.8155 88.5458C87.7797 88.5197 87.7497 88.4873 87.7273 88.4504L87.6917 88.3655ZM94.4135 109.568C94.3944 109.502 94.3977 109.432 94.423 109.368C94.4383 109.328 94.462 109.29 94.4929 109.259C94.5238 109.227 94.5612 109.201 94.6029 109.183C94.6446 109.165 94.6898 109.155 94.7358 109.153C94.7819 109.151 94.8278 109.158 94.8709 109.173C95.518 109.397 96.1804 109.597 96.8336 109.726C96.8775 109.737 96.9185 109.757 96.9542 109.783C96.99 109.81 97.0198 109.842 97.0419 109.879C97.064 109.917 97.078 109.957 97.0832 110C97.0883 110.042 97.0845 110.084 97.0718 110.125C97.0594 110.166 97.0384 110.204 97.0101 110.237C96.9818 110.271 96.9466 110.298 96.9068 110.319C96.8669 110.339 96.8231 110.353 96.7778 110.357C96.7325 110.362 96.6866 110.359 96.6428 110.347C95.9679 110.181 95.2922 109.975 94.6214 109.746C94.5573 109.74 94.4963 109.717 94.4458 109.68C94.3953 109.642 94.3575 109.592 94.3368 109.535L94.4135 109.568ZM94.3296 100.136C94.3171 100.091 94.3148 100.045 94.3231 99.9997C94.3313 99.9545 94.3498 99.9115 94.3773 99.8734C94.7473 99.3378 95.0808 98.7812 95.3761 98.2069C95.4237 98.1326 95.5005 98.0786 95.5903 98.0562C95.6801 98.0338 95.7757 98.0449 95.8568 98.087C95.9355 98.1299 95.9929 98.1998 96.0165 98.2817C96.0401 98.3637 96.028 98.451 95.9829 98.5246C95.6722 99.1237 95.3234 99.7049 94.9382 100.265C94.9157 100.303 94.8852 100.336 94.8486 100.363C94.812 100.389 94.77 100.409 94.7251 100.42C94.6803 100.431 94.6335 100.434 94.5875 100.428C94.5415 100.422 94.4973 100.407 94.4575 100.385C94.3984 100.36 94.3479 100.321 94.3117 100.271C94.2756 100.221 94.2552 100.163 94.2529 100.103L94.3296 100.136ZM91.6755 88.7793C91.6536 88.701 91.6614 88.6181 91.6975 88.5445C91.7469 88.4721 91.8238 88.4197 91.9128 88.3975C92.0018 88.3753 92.0965 88.385 92.1783 88.4247C92.8228 88.7245 93.44 89.0725 94.0238 89.4655C94.0605 89.4905 94.0915 89.5221 94.115 89.5583C94.1386 89.5945 94.1542 89.6347 94.1611 89.6766C94.1679 89.7184 94.1658 89.7611 94.155 89.8022C94.1441 89.8433 94.1246 89.882 94.0976 89.9161C94.0416 89.986 93.9584 90.0326 93.8659 90.0459C93.7733 90.0593 93.6788 90.0382 93.6028 89.9874C93.0551 89.6167 92.474 89.2908 91.8661 89.0133C91.7996 88.9957 91.7395 88.9615 91.6924 88.9145C91.6453 88.8674 91.6129 88.8093 91.5988 88.7463L91.6755 88.7793ZM98.4504 110.594C98.4276 110.552 98.4142 110.506 98.4112 110.458C98.4194 110.416 98.4366 110.376 98.4616 110.341C98.4866 110.305 98.519 110.274 98.5569 110.25C98.5948 110.226 98.6375 110.209 98.6824 110.201C98.7273 110.192 98.7736 110.192 98.8186 110.2C99.5004 110.312 100.184 110.391 100.873 110.449C100.964 110.457 101.048 110.498 101.107 110.563C101.166 110.629 101.194 110.713 101.186 110.798C101.183 110.841 101.172 110.883 101.151 110.921C101.131 110.959 101.103 110.994 101.068 111.022C101.033 111.05 100.993 111.071 100.949 111.084C100.906 111.098 100.86 111.103 100.814 111.1C100.101 111.037 99.3939 110.953 98.6988 110.835C98.6184 110.833 98.5413 110.805 98.4816 110.754C98.422 110.704 98.3836 110.636 98.3737 110.561L98.4504 110.594ZM96.087 96.5912C96.0738 96.5354 96.0764 96.4773 96.0945 96.4226C96.2736 95.8263 96.3675 95.2106 96.3737 94.5915C96.3732 94.5491 96.3818 94.5071 96.3988 94.4679C96.4158 94.4286 96.4409 94.3929 96.4728 94.3626C96.5047 94.3324 96.5427 94.3084 96.5845 94.2918C96.6264 94.2753 96.6714 94.2665 96.7169 94.2662C96.7628 94.2644 96.8086 94.2713 96.8514 94.2867C96.8943 94.302 96.9334 94.3253 96.9661 94.3553C96.9989 94.3852 97.0247 94.4211 97.042 94.4607C97.0592 94.5003 97.0676 94.5428 97.0665 94.5855C97.0627 95.2653 96.9638 95.9417 96.7721 96.5976C96.7452 96.6812 96.684 96.7516 96.6018 96.7936C96.5196 96.8355 96.4229 96.8457 96.3326 96.8219C96.2592 96.8165 96.1894 96.7902 96.1327 96.7465C96.076 96.7028 96.0352 96.6438 96.0159 96.5777L96.087 96.5912ZM94.9954 91.089C94.9789 91.0278 94.9808 90.9636 95.001 90.9033C95.0212 90.8431 95.0589 90.7893 95.11 90.7477C95.181 90.6947 95.2715 90.6698 95.362 90.6785C95.4526 90.6871 95.5358 90.7286 95.5938 90.7939C96.0747 91.3316 96.4517 91.943 96.7078 92.6008C96.7239 92.6406 96.7313 92.683 96.7297 92.7255C96.7281 92.768 96.7174 92.8098 96.6984 92.8485C96.6793 92.8871 96.6522 92.9219 96.6186 92.9508C96.585 92.9797 96.5456 93.0021 96.5027 93.0167C96.46 93.0331 96.4142 93.0412 96.368 93.0404C96.3219 93.0396 96.2764 93.0299 96.2344 93.012C96.1925 92.9941 96.1549 92.9683 96.1242 92.9363C96.0934 92.9043 96.0701 92.8667 96.0557 92.8259C95.8217 92.2504 95.4894 91.7137 95.0716 91.2367C95.0038 91.2006 94.9517 91.1435 94.9243 91.0754L94.9954 91.089ZM102.616 110.9L102.594 110.823C102.595 110.736 102.632 110.653 102.699 110.592C102.765 110.53 102.854 110.496 102.947 110.495C103.63 110.491 104.324 110.454 105 110.389C105.046 110.384 105.093 110.388 105.137 110.4C105.181 110.411 105.223 110.431 105.259 110.458C105.295 110.485 105.325 110.519 105.346 110.557C105.368 110.594 105.382 110.636 105.386 110.679C105.394 110.764 105.367 110.85 105.308 110.917C105.25 110.984 105.167 111.027 105.075 111.038C104.378 111.107 103.66 111.141 102.956 111.149C102.865 111.164 102.77 111.145 102.693 111.096C102.616 111.047 102.563 110.972 102.545 110.887L102.616 110.9ZM106.79 110.496C106.779 110.454 106.777 110.41 106.785 110.367C106.793 110.325 106.81 110.284 106.835 110.248C106.86 110.211 106.893 110.18 106.931 110.155C106.969 110.131 107.013 110.114 107.058 110.106C107.487 109.999 107.905 109.895 108.333 109.788C108.574 109.728 108.814 109.668 109.054 109.608C109.098 109.596 109.144 109.591 109.189 109.596C109.234 109.6 109.278 109.612 109.318 109.632C109.358 109.652 109.394 109.68 109.423 109.712C109.451 109.745 109.473 109.783 109.486 109.823C109.501 109.864 109.507 109.908 109.503 109.951C109.5 109.994 109.487 110.036 109.466 110.074C109.444 110.113 109.415 110.147 109.379 110.174C109.343 110.202 109.302 110.222 109.257 110.235C109.007 110.297 108.766 110.357 108.515 110.42C108.076 110.529 107.637 110.639 107.198 110.748C107.148 110.768 107.094 110.776 107.04 110.773C106.985 110.769 106.933 110.754 106.886 110.728C106.839 110.702 106.8 110.667 106.771 110.624C106.742 110.581 106.724 110.532 106.719 110.482L106.79 110.496ZM110.798 109.361C110.775 109.285 110.784 109.204 110.821 109.133C110.858 109.062 110.922 109.006 111.001 108.977C111.627 108.737 112.254 108.466 112.873 108.166C112.914 108.147 112.959 108.135 113.004 108.132C113.05 108.129 113.096 108.134 113.139 108.147C113.183 108.161 113.223 108.182 113.258 108.21C113.292 108.238 113.32 108.272 113.341 108.31C113.382 108.385 113.391 108.473 113.364 108.554C113.337 108.634 113.276 108.702 113.196 108.742C112.556 109.048 111.91 109.334 111.264 109.578C111.221 109.595 111.176 109.603 111.13 109.603C111.084 109.603 111.039 109.594 110.996 109.578C110.954 109.561 110.916 109.537 110.884 109.506C110.851 109.476 110.826 109.439 110.809 109.4L110.798 109.361ZM114.516 107.569C114.485 107.515 114.472 107.453 114.479 107.392C114.485 107.331 114.511 107.274 114.552 107.226C115.126 106.885 115.702 106.512 116.251 106.125C116.287 106.099 116.328 106.08 116.372 106.068C116.416 106.057 116.462 106.054 116.507 106.059C116.552 106.064 116.596 106.078 116.635 106.099C116.675 106.119 116.71 106.147 116.738 106.181C116.792 106.252 116.816 106.339 116.803 106.426C116.791 106.512 116.743 106.591 116.67 106.646C116.113 107.045 115.516 107.424 114.935 107.777C114.854 107.823 114.758 107.838 114.666 107.817C114.574 107.797 114.494 107.744 114.445 107.67L114.516 107.569ZM117.843 105.196C117.826 105.14 117.827 105.081 117.844 105.025C117.862 104.969 117.896 104.919 117.943 104.88C118.457 104.449 118.942 103.995 119.412 103.523C119.477 103.461 119.566 103.425 119.66 103.423C119.754 103.421 119.844 103.453 119.913 103.513C119.947 103.542 119.974 103.577 119.993 103.616C120.012 103.655 120.023 103.697 120.023 103.74C120.024 103.783 120.016 103.825 119.998 103.865C119.98 103.904 119.954 103.94 119.921 103.97C119.444 104.453 118.938 104.913 118.424 105.385C118.354 105.443 118.263 105.473 118.17 105.469C118.077 105.465 117.989 105.427 117.925 105.364L117.843 105.196ZM120.697 102.348C120.686 102.3 120.685 102.251 120.697 102.203C120.708 102.155 120.731 102.11 120.763 102.071C121.19 101.569 121.587 101.042 121.971 100.509C122.019 100.434 122.096 100.38 122.185 100.358C122.275 100.336 122.371 100.347 122.452 100.389C122.492 100.41 122.528 100.438 122.557 100.472C122.585 100.506 122.606 100.545 122.618 100.587C122.63 100.629 122.633 100.672 122.627 100.715C122.62 100.758 122.605 100.799 122.581 100.836C122.189 101.382 121.771 101.914 121.337 102.428C121.279 102.498 121.194 102.543 121.101 102.554C121.008 102.566 120.914 102.543 120.839 102.49C120.75 102.464 120.675 102.408 120.626 102.335L120.697 102.348ZM123.011 99.1029C123 99.0633 122.997 99.0219 123.002 98.9812C123.008 98.9404 123.022 98.9011 123.044 98.8655C123.375 98.3035 123.69 97.7246 123.971 97.1439C123.989 97.1051 124.015 97.07 124.048 97.0407C124.081 97.0114 124.119 96.9883 124.162 96.9729C124.204 96.9575 124.249 96.95 124.295 96.9509C124.34 96.9518 124.385 96.961 124.427 96.978C124.469 96.995 124.506 97.0194 124.538 97.0499C124.569 97.0805 124.594 97.1165 124.611 97.1559C124.627 97.1953 124.635 97.2374 124.634 97.2797C124.633 97.3221 124.624 97.3638 124.605 97.4026C124.32 98.0054 123.997 98.5966 123.661 99.1806C123.613 99.2549 123.537 99.309 123.447 99.3313C123.357 99.3537 123.261 99.3427 123.18 99.3005C123.126 99.2832 123.077 99.2554 123.036 99.219C122.994 99.1826 122.962 99.1384 122.94 99.0894L123.011 99.1029ZM124.721 95.5496C124.706 95.4876 124.707 95.4232 124.723 95.3615C124.951 94.7523 125.155 94.1385 125.315 93.5255C125.325 93.4835 125.344 93.4438 125.371 93.4088C125.398 93.3738 125.432 93.3442 125.472 93.3217C125.511 93.2992 125.555 93.2844 125.601 93.278C125.647 93.2716 125.693 93.2737 125.738 93.2844C125.828 93.306 125.905 93.3591 125.953 93.4327C126.002 93.5062 126.017 93.5943 125.997 93.6784C125.822 94.3161 125.624 94.9493 125.42 95.5631C125.406 95.6041 125.383 95.642 125.352 95.6746C125.322 95.7072 125.285 95.7339 125.244 95.753C125.202 95.7721 125.157 95.7832 125.111 95.7858C125.065 95.7883 125.018 95.7822 124.975 95.7679C124.896 95.7709 124.819 95.7491 124.756 95.7062C124.693 95.6633 124.647 95.6017 124.627 95.5315L124.721 95.5496ZM125.726 91.7655L125.693 91.6488C125.8 91.0135 125.87 90.3732 125.902 89.7309C125.911 89.6457 125.954 89.5668 126.024 89.5107C126.093 89.4545 126.183 89.4255 126.275 89.4295C126.368 89.435 126.455 89.474 126.517 89.5383C126.579 89.6026 126.612 89.687 126.609 89.7736C126.56 90.4215 126.494 91.0844 126.39 91.7356C126.375 91.8216 126.325 91.8989 126.25 91.9507C126.175 92.0026 126.081 92.025 125.988 92.013C125.907 92.0117 125.829 91.9838 125.767 91.9343C125.706 91.8848 125.665 91.8168 125.653 91.7423L125.726 91.7655Z" fill="#D21E28" fill-opacity="0.3"></path></svg> 